<svg width="74" height="13" viewBox="0 0 74 13" fill="none" xmlns="http://www.w3.org/2000/svg">
  <g clip-path="url(#myscheme-clip)">
    <path d="M9.16582 2.28836C10.0509 2.28836 10.7529 2.55947 11.272 3.10167C11.7997 3.64388 12.0634 4.39695 12.0634 5.36088V9.56944H9.89342V5.6578C9.89342 5.19305 9.77005 4.83588 9.52324 4.58629C9.28499 4.3281 8.95311 4.199 8.52758 4.199C8.10209 4.199 7.76596 4.3281 7.51917 4.58629C7.28089 4.83588 7.16175 5.19305 7.16175 5.6578V9.56944H4.99174V5.6578C4.99174 5.19305 4.86835 4.83588 4.62156 4.58629C4.38329 4.3281 4.0514 4.199 3.62591 4.199C3.20041 4.199 2.86428 4.3281 2.61749 4.58629C2.37922 4.83588 2.26008 5.19305 2.26008 5.6578V9.56944H.077301V2.36582H2.26008V3.2695C2.48134 2.96827 2.77067 2.7316 3.12808 2.55947C3.4855 2.37873 3.88971 2.28836 4.34074 2.28836C4.87686 2.28836 5.35341 2.40455 5.77039 2.63692C6.19589 2.8693 6.52777 3.20065 6.76604 3.63097C7.01283 3.23508 7.34897 2.91233 7.77446 2.66274C8.19996 2.41315 8.66374 2.28836 9.16582 2.28836ZM20.8659 2.36582L16.3983 12.9905H14.0496L15.6834 9.32416L12.7858 2.36582H15.2239L16.8706 6.87131L18.5045 2.36582H20.8659Z" fill="#16A34A"/>
    <path d="M24.8975 9.65981C22.799 9.65981 21.4595 8.62704 21.3999 6.8584H23.7231C23.7572 7.19406 23.8721 7.45225 24.0678 7.63299C24.2635 7.80512 24.5188 7.89118 24.8337 7.89118C25.4805 7.89118 25.8804 7.58135 25.8804 7.03914C25.8804 6.33771 25.2081 6.13976 24.1826 5.79981C22.7658 5.36088 21.4255 4.75412 21.4255 3.07585C21.4255 1.38037 22.7658.377722 24.6932.377722C26.6803.377722 28.0079 1.4191 28.0504 3.08876H25.6889C25.6464 2.49061 25.2422 2.14635 24.6166 2.14635C24.072 2.14635 23.7359 2.44327 23.7359 2.97258C23.7359 3.65679 24.4082 3.82031 25.4208 4.18609C26.8377 4.70248 28.1653 5.2576 28.1653 6.87131C28.1653 8.51084 26.8888 9.65981 24.8975 9.65981ZM29.0746 5.96763C29.0746 3.70842 30.4915 2.26254 32.6487 2.26254C34.5337 2.26254 35.6825 3.2781 36.0697 4.97358H33.7465C33.5507 4.42277 33.1721 4.14736 32.6104 4.14736C31.7637 4.14736 31.2957 4.78854 31.2957 5.96763C31.2957 7.14672 31.7637 7.7879 32.6104 7.7879C33.1721 7.7879 33.5507 7.51249 33.7465 6.96168H36.0697C35.6825 8.64426 34.5337 9.67272 32.6487 9.67272C30.4915 9.67272 29.0746 8.22684 29.0746 5.96763ZM41.6156 2.28836C43.2537 2.28836 44.3217 3.37278 44.3217 5.36088V9.56945H42.1517V5.6578C42.1517 4.69386 41.6581 4.13445 40.7859 4.13445C39.9136 4.13445 39.42 4.69386 39.42 5.6578V9.56945H37.2373V.0162501H39.42V3.33405C39.8626 2.69717 40.6497 2.28836 41.6156 2.28836ZM52.5528 5.85145C52.5528 6.058 52.54 6.27316 52.5145 6.49693H47.5745C47.6426 7.40061 48.1872 7.87827 48.9276 7.87827C49.4723 7.87827 49.8509 7.6459 50.0636 7.18115H52.3868C51.9954 8.66578 50.6465 9.67272 49.0042 9.67272C46.8512 9.67272 45.4045 8.22684 45.4045 5.96763C45.4045 3.70842 46.8214 2.26254 49.0042 2.26254C51.1274 2.26254 52.5528 3.66969 52.5528 5.85145ZM50.3189 5.27051C50.3189 4.49162 49.7488 4.03117 48.9786 4.03117C48.2425 4.03117 47.7064 4.46579 47.5873 5.27051H50.3189ZM62.7929 2.28836C64.5629 2.28836 65.6905 3.37278 65.6905 5.36088V9.56945H63.5205V5.6578C63.5205 4.72829 63.0269 4.199 62.1546 4.199C61.2824 4.199 60.7888 4.72829 60.7888 5.6578V9.56945H58.6188V5.6578C58.6188 4.72829 58.1252 4.199 57.253 4.199C56.3807 4.199 55.8871 4.72829 55.8871 5.6578V9.56945H53.7044V2.36582H55.8871V3.2695C56.3297 2.66274 57.0573 2.28836 57.9678 2.28836C59.0401 2.28836 59.8867 2.7316 60.3931 3.63097C60.8696 2.80476 61.759 2.28836 62.7929 2.28836ZM73.9313 5.85145C73.9313 6.058 73.9185 6.27316 73.893 6.49693H68.953C69.0211 7.40061 69.5657 7.87827 70.3061 7.87827C70.8508 7.87827 71.2294 7.6459 71.4421 7.18115H73.7653C73.3739 8.66578 72.025 9.67272 70.3827 9.67272C68.2297 9.67272 66.783 8.22684 66.783 5.96763C66.783 3.70842 68.1999 2.26254 70.3827 2.26254C72.5059 2.26254 73.9313 3.66969 73.9313 5.85145ZM71.6974 5.27051C71.6974 4.49162 71.1273 4.03117 70.3571 4.03117C69.621 4.03117 69.0849 4.46579 68.9658 5.27051H71.6974Z" fill="#2F2B45"/>
  </g>
  <defs><clipPath id="myscheme-clip"><rect width="74" height="13" fill="white"/></clipPath></defs>
</svg>
